<svg width="37" height="13" viewBox="0 0 37 13" fill="none" xmlns="http://www.w3.org/2000/svg">
<path d="M0.0170455 10L1.46591 1.27273H5.23295C5.88068 1.27273 6.42756 1.39062 6.87358 1.62642C7.3196 1.86222 7.64062 2.2017 7.83665 2.64489C8.03267 3.08807 8.07955 3.61932 7.97727 4.23864C7.875 4.86364 7.64915 5.39062 7.29972 5.8196C6.95313 6.24574 6.51136 6.5696 5.97443 6.79119C5.44034 7.00994 4.84091 7.11932 4.17614 7.11932H1.92614L2.23295 5.27841H4.00568C4.28409 5.27841 4.52841 5.24432 4.73864 5.17614C4.94886 5.10511 5.11932 4.99432 5.25 4.84375C5.38068 4.69034 5.46591 4.48864 5.50568 4.23864C5.54545 3.98864 5.52557 3.78551 5.44602 3.62926C5.36648 3.47017 5.23438 3.35369 5.04972 3.27983C4.86506 3.20312 4.63636 3.16477 4.36364 3.16477H3.52841L2.38636 10H0.0170455ZM5.79545 5.99432L7.3125 10H4.73864L3.27273 5.99432H5.79545ZM11.1797 10.1193C10.4695 10.1193 9.88423 9.97869 9.42401 9.69744C8.96662 9.41335 8.6456 9.01847 8.46094 8.51278C8.27628 8.00426 8.23935 7.41477 8.35014 6.74432C8.46094 6.07386 8.69247 5.4858 9.04474 4.98011C9.39702 4.47159 9.85014 4.0767 10.4041 3.79545C10.9581 3.51136 11.5916 3.36932 12.3047 3.36932C13.0121 3.36932 13.5945 3.51136 14.0518 3.79545C14.5121 4.0767 14.8345 4.47159 15.0192 4.98011C15.2067 5.4858 15.245 6.07386 15.1342 6.74432C15.0234 7.41477 14.7905 8.00426 14.4354 8.51278C14.0803 9.01847 13.6257 9.41335 13.0717 9.69744C12.5206 9.97869 11.8899 10.1193 11.1797 10.1193ZM11.4695 8.38068C11.674 8.38068 11.8601 8.31392 12.0277 8.1804C12.1982 8.04687 12.343 7.85653 12.4624 7.60938C12.5845 7.36222 12.674 7.06818 12.7308 6.72727C12.7876 6.38352 12.7962 6.08949 12.7564 5.84517C12.7166 5.59801 12.6342 5.40767 12.5092 5.27415C12.3842 5.14062 12.2195 5.07386 12.0149 5.07386C11.8104 5.07386 11.6229 5.14062 11.4524 5.27415C11.282 5.40767 11.1371 5.59801 11.0178 5.84517C10.8984 6.08949 10.8104 6.38352 10.7536 6.72727C10.6967 7.06818 10.6868 7.36222 10.7237 7.60938C10.7635 7.85653 10.8459 8.04687 10.9709 8.1804C11.0987 8.31392 11.2649 8.38068 11.4695 8.38068ZM20.5376 3.45455L20.2479 5.15909H15.9354L16.2251 3.45455H20.5376ZM17.3161 1.88636H19.6683L18.6712 7.89489C18.657 7.9858 18.6598 8.0625 18.6797 8.125C18.6996 8.18466 18.7393 8.23011 18.799 8.26136C18.8615 8.28977 18.9439 8.30398 19.0462 8.30398C19.1143 8.30398 19.1982 8.29545 19.2976 8.27841C19.397 8.25852 19.4723 8.24432 19.5234 8.2358L19.5916 9.8892C19.4723 9.9233 19.3118 9.96165 19.1101 10.0043C18.9112 10.0497 18.6797 10.0795 18.4155 10.0938C17.8643 10.1193 17.4155 10.0611 17.0689 9.91903C16.7251 9.77699 16.4865 9.5554 16.353 9.25426C16.2223 8.95028 16.1996 8.57102 16.2848 8.11648L17.3161 1.88636ZM20.4066 10L21.4975 3.45455H23.8498L22.7589 10H20.4066ZM22.7759 2.77273C22.4577 2.77273 22.2006 2.66761 22.0046 2.45739C21.8086 2.24432 21.7362 1.99148 21.7873 1.69886C21.8384 1.40057 21.9947 1.14773 22.256 0.940341C22.5174 0.730114 22.8072 0.625 23.1254 0.625C23.4464 0.625 23.7021 0.730114 23.8924 0.940341C24.0827 1.14773 24.1538 1.40057 24.1055 1.69886C24.06 1.99148 23.9066 2.24432 23.6452 2.45739C23.3867 2.66761 23.0969 2.77273 22.7759 2.77273ZM28.9773 3.45455L28.6875 5.15909H24.3068L24.5966 3.45455H28.9773ZM24.3324 10L25.4574 3.26705C25.5455 2.72727 25.7145 2.27983 25.9645 1.92472C26.2173 1.5696 26.5341 1.30398 26.9148 1.12784C27.2983 0.951704 27.7273 0.863636 28.2017 0.863636C28.5028 0.863636 28.7912 0.886363 29.0668 0.931818C29.3423 0.977273 29.5426 1.01705 29.6676 1.05114L29.054 2.73864C28.9716 2.71307 28.8764 2.69318 28.7685 2.67898C28.6605 2.66193 28.5625 2.65341 28.4744 2.65341C28.2557 2.65341 28.0994 2.70028 28.0057 2.79403C27.9148 2.88778 27.8551 3.01136 27.8267 3.16477L26.6847 10H24.3324ZM29.8168 12.4545C29.544 12.4545 29.2898 12.4332 29.054 12.3906C28.8182 12.3509 28.6122 12.2955 28.4361 12.2244L29.2287 10.554C29.4105 10.6222 29.5781 10.6662 29.7315 10.6861C29.8878 10.706 30.0256 10.6946 30.1449 10.652C30.2642 10.6094 30.3622 10.5284 30.4389 10.4091L30.5156 10.2898L29.348 3.45455H31.7173L32.0156 7.98864H32.0838L33.9162 3.45455H36.473L32.9105 10.5455C32.7287 10.9062 32.5014 11.2301 32.2287 11.517C31.9588 11.8068 31.6264 12.0355 31.2315 12.2031C30.8366 12.3707 30.3651 12.4545 29.8168 12.4545Z" fill="white"/>
</svg>
